<?xml version="1.0" encoding="iso-8859-1"?>
<!-- Generator: Adobe Illustrator 19.0.0, SVG Export Plug-In . SVG Version: 6.00 Build 0)  -->
<svg version="1.1" id="Layer_1" xmlns="http://www.w3.org/2000/svg" xmlns:xlink="http://www.w3.org/1999/xlink" x="0px" y="0px"
	 viewBox="0 0 512 512" style="enable-background:new 0 0 512 512;" xml:space="preserve">
<polygon style="fill:#FFDA44;" points="143.668,345.72 238.3,295.969 238.3,393.999 273.701,393.999 273.701,295.969 
	368.332,345.72 346.878,220.637 437.757,132.054 312.166,113.804 256.001,0 199.834,113.804 74.243,132.054 165.122,220.637 "/>
<g>
	<polygon style="fill:#FF9811;" points="188.354,169.131 235.097,162.338 256.001,119.984 276.904,162.338 323.646,169.131 
		289.823,202.101 297.807,248.653 256.001,226.673 214.194,248.653 222.178,202.101 	"/>
	<polygon style="fill:#FF9811;" points="356.302,476.6 356.302,376.299 155.7,376.299 155.7,476.6 120.299,476.6 120.299,512 
		391.702,512 391.702,476.6 	"/>
</g>
<rect x="120.303" y="476.595" style="fill:#A2001D;" width="271.403" height="35.4"/>
<rect x="220.604" y="441.195" style="fill:#FFDA44;" width="70.801" height="35.4"/>
<g>
</g>
<g>
</g>
<g>
</g>
<g>
</g>
<g>
</g>
<g>
</g>
<g>
</g>
<g>
</g>
<g>
</g>
<g>
</g>
<g>
</g>
<g>
</g>
<g>
</g>
<g>
</g>
<g>
</g>
</svg>
