<?xml version="1.0" encoding="UTF-8"?>
<svg width="249px" height="62px" viewBox="0 0 249 62" version="1.1" xmlns="http://www.w3.org/2000/svg" xmlns:xlink="http://www.w3.org/1999/xlink">
    <!-- Generator: Sketch 3.8.1 (29687) - http://www.bohemiancoding.com/sketch -->
    <title>nishant_name</title>
    <desc>Created with Sketch.</desc>
    <defs>
        <rect id="path-1" x="0" y="0" width="29" height="11" rx="5.5"></rect>
        <mask id="mask-2" maskContentUnits="userSpaceOnUse" maskUnits="objectBoundingBox" x="0" y="0" width="29" height="11" fill="white">
            <use xlink:href="#path-1"></use>
        </mask>
    </defs>
    <g id="Page-1" stroke="none" stroke-width="1" fill="none" fill-rule="evenodd">
        <g id="Artboard-1" transform="translate(-142.000000, -182.000000)">
            <g id="nishant_name" transform="translate(142.000000, 182.000000)">
                <path d="M42.3398438,13.6171875 L50.6015625,13.6171875 L50.6015625,39 L42.3398438,39 L42.3398438,13.6171875 Z M82.828125,21.1757812 L76.640625,21.1757812 C73.6288912,21.0820308 73.1835831,21.9140537 75.3046875,23.671875 C79.1015815,27.0000166 80.9648441,30.2343593 80.8945312,33.375 C80.8242184,36.5156407 78.9609558,38.390622 75.3046875,39 L61.8046875,39 L61.8046875,31.4414062 L67.1484375,31.4414062 C70.4648603,31.5351567 70.8867311,30.6093847 68.4140625,28.6640625 C64.3359171,24.9140437 62.6015595,21.4687657 63.2109375,18.328125 C63.8203155,15.1874843 65.7421713,13.6171875 68.9765625,13.6171875 L82.828125,13.6171875 L82.828125,21.1757812 Z M107.865234,22.3710938 L107.865234,13.6171875 L116.126953,13.6171875 L116.126953,39 L107.865234,39 L107.865234,29.859375 L101.220703,29.859375 L101.220703,39 L92.9589844,39 L92.9589844,13.6171875 L101.220703,13.6171875 L101.220703,22.3710938 L107.865234,22.3710938 Z M125.923828,39 L134.273437,13.6171875 L146.876953,13.6171875 L155.367187,39 L145.769531,39 L144.169922,34.4296875 L136.628906,34.4296875 L135.029297,39 L125.923828,39 Z M140.601562,19.2421875 L136.962891,29.296875 L143.958984,29.296875 L140.601562,19.2421875 Z M165.515625,39 L165.515625,13.6171875 L173.777344,13.6171875 L181.335938,23.109375 L181.335938,13.6171875 L189.597656,13.6171875 L189.597656,39 L181.335938,39 L173.777344,29.5078125 L173.777344,39 L165.515625,39 Z M224.285156,13.6171875 L224.285156,21.1757812 L216.234375,21.1757812 L216.234375,39 L207.972656,39 L207.972656,21.1757812 L199.921875,21.1757812 L199.921875,13.6171875 L224.285156,13.6171875 Z M20.894043,50.3647461 L15.6845703,50.3647461 C13.7185774,50.3035479 13.4278902,50.846674 14.8125,51.9941406 C17.291028,54.1666775 18.5073244,56.2779845 18.4614258,58.328125 C18.4155271,60.3782655 17.1992307,61.6022116 14.8125,62 L0.354492188,62 L0.354492188,57.065918 L9.48828125,57.065918 C11.6531684,57.1271162 11.9285562,56.5227928 10.3144531,55.2529297 C7.65233044,52.8050008 6.5201803,50.5559998 6.91796875,48.5058594 C7.3157572,46.4557189 8.57030194,45.4306641 10.6816406,45.4306641 L20.894043,45.4306641 L20.894043,50.3647461 Z M26.5663228,62 L26.5663228,45.4306641 L37.3524556,45.4306641 C38.683517,45.5530605 39.7774188,45.904945 40.6341939,46.4863281 C41.490969,47.0677112 42.1182414,47.8479769 42.5160298,48.8271484 C42.8220209,50.2959058 42.8373203,51.4280559 42.5619283,52.2236328 C42.2865363,53.0192097 41.8046075,53.6847304 41.1161275,54.2202148 C40.4276475,54.7556993 39.4408409,55.1764308 38.1556783,55.4824219 L39.3949361,57.065918 L44.3519673,57.065918 L44.3519673,62 L37.81144,62 L32.5560689,56.5266113 L32.5560689,62 L26.5663228,62 Z M32.5560689,49.5615234 L32.5560689,52.6137695 L36.7328267,52.6137695 C36.9546703,52.6137695 37.1956347,52.5315357 37.4557271,52.3670654 C37.7158195,52.2025952 37.8535135,51.787601 37.868813,51.1220703 C37.8305641,50.4871388 37.6756585,50.0683197 37.4040914,49.8656006 C37.1325242,49.6628815 36.9049468,49.5615234 36.7213521,49.5615234 L32.5560689,49.5615234 Z M50.9766397,45.4306641 L56.3697062,45.4306641 L56.3697062,62 L50.9766397,62 L50.9766397,45.4306641 Z M69.0873961,45.4306641 L72.851068,58.1560059 L76.6606383,45.4306641 L83.3044372,45.4306641 L77.3950133,62 L68.5939879,62 L62.7648864,45.4306641 L69.0873961,45.4306641 Z M88.3226643,62 L93.7731037,45.4306641 L102.000399,45.4306641 L107.542635,62 L101.277498,62 L100.233309,59.0166016 L95.3107014,59.0166016 L94.2665119,62 L88.3226643,62 Z M97.9039631,49.1025391 L95.5287189,55.6660156 L100.095613,55.6660156 L97.9039631,49.1025391 Z M127.202464,50.3647461 L123.163401,50.3647461 C121.197408,50.3035479 120.906721,50.846674 122.291331,51.9941406 C124.769859,54.1666775 125.986155,56.2779845 125.940257,58.328125 C125.894358,60.3782655 124.678061,61.6022116 122.291331,62 L113.478831,62 L113.478831,57.065918 L116.967112,57.065918 C119.131999,57.1271162 119.407387,56.5227928 117.793284,55.2529297 C115.131161,52.8050008 113.999011,50.5559998 114.3968,48.5058594 C114.794588,46.4557189 116.049133,45.4306641 118.160471,45.4306641 L127.202464,45.4306641 L127.202464,50.3647461 Z M149.14574,45.4306641 L149.14574,50.3647461 L143.890368,50.3647461 L143.890368,62 L138.497302,62 L138.497302,50.3647461 L133.241931,50.3647461 L133.241931,45.4306641 L149.14574,45.4306641 Z M154.967189,62 L160.417629,45.4306641 L168.644924,45.4306641 L174.18716,62 L167.922023,62 L166.877834,59.0166016 L161.955226,59.0166016 L160.911037,62 L154.967189,62 Z M164.548488,49.1025391 L162.173244,55.6660156 L166.740139,55.6660156 L164.548488,49.1025391 Z M185.527897,45.4306641 L189.291569,58.1560059 L193.101139,45.4306641 L199.744938,45.4306641 L193.835514,62 L185.034489,62 L179.205387,45.4306641 L185.527897,45.4306641 Z M204.763165,62 L210.213604,45.4306641 L218.440899,45.4306641 L223.983136,62 L217.717999,62 L216.67381,59.0166016 L211.751202,59.0166016 L210.707013,62 L204.763165,62 Z M214.344464,49.1025391 L211.96922,55.6660156 L216.536114,55.6660156 L214.344464,49.1025391 Z" id="Nishant" fill="#0089C9"></path>
                <g id="Group" transform="translate(220.000000, 0.000000)">
                    <text id="nisrulz" font-family="Futura-Medium, Futura" font-size="6.48000026" font-weight="400" letter-spacing="0.0720000044" fill="#FFFFFF">
                        <tspan x="4.86335404" y="7.57894737">nisrul</tspan>
                        <tspan x="20.7581281" y="7.57894737">z</tspan>
                    </text>
                    <use id="Rectangle-1" stroke="#FFFFFF" mask="url(#mask-2)" stroke-width="1.44000006" xlink:href="#path-1"></use>
                </g>
                <polygon id="Path" fill="#FFFFFF" points="7.0546875 39 7.0546875 13.6171875 15.3164062 13.6171875 22.875 23.109375 22.875 13.6171875 38.1679688 13.6171875 38.1679688 21.1757812 31.1367188 21.1757812 31.1367188 39 22.875 39 15.3164062 29.5078125 15.3164062 39"></polygon>
            </g>
        </g>
    </g>
</svg>